# xmcd CD database file
#
# Track frame offsets:
#	150
#	18342
#	41820
#	66993
#
# Disc length: 1131 seconds
#
# Revision: 0
# Processed by: cddbd v1.5PL3 Copyright (c) Steve Scherf et al.
# Submitted via: CDex 1.50beta9
#
DISCID=31046904
DTITLE=山口眞弓 - ギャラクシーエンジェルA　スペシャルCD4〜フォルテver.
DYEAR=2003
DGENRE=Anime
TTITLE0=マグナム＠レボリューション
TTITLE1=すぺしゃるドラマ 「エンジェル隊こぼれ話」〜その４〜
TTITLE2=すぺしゃるドラマ 〜フォルテ篇〜
TTITLE3=マグナム＠レボリューション (off vocal)
EXTD=YEAR: 2003
EXTT0=
EXTT1=
EXTT2=
EXTT3=
PLAYORDER=
